<svg width="67" height="67" viewBox="0 0 67 67" fill="none" xmlns="http://www.w3.org/2000/svg">
<g id="Group 34992">
<path id="Ellipse 199" d="M66.861 33.4305C66.861 51.8936 51.8936 66.861 33.4305 66.861C14.9673 66.861 0 51.8936 0 33.4305C0 14.9673 14.9673 0 33.4305 0C51.8936 0 66.861 14.9673 66.861 33.4305Z" fill="#FF4444"/>
<path id="Rectangle 240646801" d="M25.8454 14.0835C26.4988 12.3663 28.4207 11.5039 30.1379 12.1574C31.8551 12.8109 32.7175 14.7327 32.064 16.4499L18.63 51.7528C17.9766 53.4701 16.0547 54.3324 14.3375 53.6789C12.6202 53.0255 11.7579 51.1036 12.4114 49.3864L25.8454 14.0835Z" fill="white"/>
<path id="Rectangle 240646800" d="M34.7677 14.9543C34.7677 13.342 36.1148 12.035 37.7764 12.035C39.4381 12.035 40.7852 13.342 40.7852 14.9543V51.238C40.7852 52.8503 39.4381 54.1574 37.7764 54.1574C36.1148 54.1574 34.7677 52.8503 34.7677 51.238V14.9543Z" fill="white"/>
<path id="Rectangle 240646799" d="M43.4596 14.2245C43.4596 13.0153 44.5073 12.035 45.7998 12.035C47.0922 12.035 48.1399 13.0153 48.1399 14.2245V51.9678C48.1399 53.1771 47.0922 54.1574 45.7998 54.1574C44.5073 54.1574 43.4596 53.1771 43.4596 51.9678V14.2245Z" fill="white"/>
</g>
</svg>
