<svg width="245" height="43" viewBox="0 0 245 43" fill="none" xmlns="http://www.w3.org/2000/svg">
<g id="Group 34993">
<path id="Vector" d="M244.483 42.0666H233.849L221.376 24.8889L216.721 29.731V42.0666H207.869V1.71632H216.721V19.3552L233.045 1.71632H243.736L227.354 18.8364L244.483 42.0666Z" fill="white"/>
<path id="Vector_2" d="M202.638 21.8915C202.638 33.393 193.65 42.8139 181.285 42.8139C168.92 42.8139 160.046 33.5086 160.046 22.0071V21.8915C160.046 10.3899 169.034 0.969101 181.399 0.969101C193.765 0.969101 202.638 10.2744 202.638 21.7759V21.8915ZM193.421 22.0071V21.8915C193.421 14.9559 188.384 9.17622 181.285 9.17622C174.186 9.17622 169.263 14.8403 169.263 21.7759V21.8915C169.263 28.8271 174.301 34.6067 181.399 34.6067C188.498 34.6067 193.421 28.9427 193.421 22.0071Z" fill="white"/>
<path id="Vector_3" d="M157.057 21.8915C157.057 33.393 148.069 42.8139 135.704 42.8139C123.339 42.8139 114.465 33.5086 114.465 22.0071V21.8915C114.465 10.3899 123.453 0.969101 135.819 0.969101C148.184 0.969101 157.057 10.2744 157.057 21.7759V21.8915ZM147.84 22.0071V21.8915C147.84 14.9559 142.803 9.17622 135.704 9.17622C128.605 9.17622 123.682 14.8403 123.682 21.7759V21.8915C123.682 28.8271 128.72 34.6067 135.819 34.6067C142.917 34.6067 147.84 28.9427 147.84 22.0071Z" fill="white"/>
<path id="Vector_4" d="M111.476 30.9991C111.476 38.3774 105.599 42.0666 96.67 42.0666H77.8511V1.71632H96.2179C104.299 1.71632 109.272 5.80899 109.272 12.1497V12.265C109.272 16.8189 106.899 19.3552 104.073 20.9692C108.651 22.7561 111.476 25.4654 111.476 30.8838V30.9991ZM100.626 13.7638V13.6485C100.626 10.9969 98.5914 9.49816 94.9181 9.49816H86.3281V18.0294H94.3529C98.1958 18.0294 100.626 16.7612 100.626 13.7638ZM102.83 29.9039V29.7886C102.83 27.0794 100.852 25.4077 96.3874 25.4077H86.3281V34.2848H96.67C100.513 34.2848 102.83 32.9013 102.83 29.9039Z" fill="white"/>
<path id="Vector_5" d="M72.6205 42.0666H41.9842V1.71632H72.3331V9.61345H50.7785V17.7988H69.7466V25.6959H50.7785V34.1695H72.6205V42.0666Z" fill="white"/>
<path id="Vector_6" d="M36.7536 21.8915C36.7536 33.2472 28.1251 42.0666 15.6366 42.0666H0.139435V1.71632H15.6366C28.1251 1.71632 36.7536 10.4205 36.7536 21.7762V21.8915ZM27.6143 22.0068V21.8915C27.6143 14.7437 22.7891 9.72873 15.6366 9.72873H8.88142V34.0542H15.6366C22.7891 34.0542 27.6143 29.1545 27.6143 22.0068Z" fill="white"/>
</g>
</svg>
